<svg t="1587975553281" class="icon" viewBox="0 0 1024 1024" version="1.1" xmlns="http://www.w3.org/2000/svg" p-id="6101" width="32" height="32"><path d="M185.910689 277.92587m-32.893154 0a32.144 32.144 0 1 0 65.786309 0 32.144 32.144 0 1 0-65.786309 0Z" p-id="6102" fill="#707070"></path><path d="M849.450057 518.715959 311.102992 518.715959c-11.889795 0-21.530362-9.640568-21.530362-21.531386s9.640568-21.531386 21.530362-21.531386l538.347065 0c11.891841 0 21.531386 9.640568 21.531386 21.531386S861.341898 518.715959 849.450057 518.715959z" p-id="6103" fill="#707070"></path><path d="M849.450057 767.603469 311.102992 767.603469c-11.889795 0-21.530362-9.637498-21.530362-21.530362 0-11.889795 9.640568-21.531386 21.530362-21.531386l538.347065 0c11.891841 0 21.531386 9.641591 21.531386 21.531386C870.981443 757.965971 861.341898 767.603469 849.450057 767.603469z" p-id="6104" fill="#707070"></path><path d="M849.450057 299.457256 311.102992 299.457256c-11.889795 0-21.530362-9.639544-21.530362-21.531386 0-11.889795 9.640568-21.529339 21.530362-21.529339l538.347065 0c11.891841 0 21.531386 9.639544 21.531386 21.529339C870.981443 289.817712 861.341898 299.457256 849.450057 299.457256z" p-id="6105" fill="#707070"></path><path d="M185.910689 497.184573m-32.894178 0a32.145 32.145 0 1 0 65.788355 0 32.145 32.145 0 1 0-65.788355 0Z" p-id="6106" fill="#707070"></path><path d="M185.910689 746.075153m-32.892131 0a32.143 32.143 0 1 0 65.784262 0 32.143 32.143 0 1 0-65.784262 0Z" p-id="6107" fill="#707070"></path></svg>